#define ea_2_7_width 264
#define ea_2_7_height 176
static unsigned char ea_2_7_bits[] = {
   0x00, 0x00, 0x00, 0x00, 0x00, 0x00, 0x00, 0x00, 0x00, 0x00, 0x00, 0x00,
   0x00, 0x00, 0x00, 0x00, 0x00, 0x00, 0x00, 0x00, 0x00, 0x00, 0x00, 0x00,
   0x00, 0x00, 0x00, 0x00, 0x00, 0x00, 0x00, 0x00, 0x00, 0x00, 0x00, 0x00,
   0x00, 0x00, 0x00, 0x00, 0x00, 0x00, 0x00, 0x00, 0x00, 0x00, 0x00, 0x00,
   0x00, 0x00, 0x00, 0x00, 0x00, 0x00, 0x00, 0x00, 0x00, 0x00, 0x00, 0x00,
   0x00, 0x00, 0x00, 0x00, 0x00, 0x00, 0x00, 0x00, 0x00, 0x00, 0x00, 0x00,
   0x00, 0x00, 0x00, 0x00, 0x00, 0x00, 0x00, 0x00, 0x00, 0x00, 0x00, 0x00,
   0x00, 0x00, 0x00, 0x00, 0x00, 0x00, 0x00, 0x00, 0x00, 0x00, 0x00, 0x00,
   0x00, 0x00, 0x00, 0x00, 0x00, 0x00, 0x00, 0x00, 0x00, 0x00, 0x00, 0x00,
   0x00, 0x00, 0x00, 0x00, 0x00, 0x00, 0x00, 0x00, 0x00, 0x00, 0x00, 0x00,
   0x00, 0x00, 0x00, 0x00, 0x00, 0x00, 0x00, 0x00, 0x00, 0x00, 0x00, 0x00,
   0x00, 0x00, 0x00, 0x00, 0x00, 0x00, 0x00, 0x00, 0x00, 0x00, 0x00, 0x00,
   0x00, 0x00, 0x00, 0x00, 0x00, 0x00, 0x00, 0x00, 0x00, 0x00, 0x00, 0x00,
   0x00, 0x00, 0x00, 0x00, 0x00, 0x00, 0x00, 0x00, 0x00, 0x00, 0x00, 0x00,
   0x00, 0x00, 0x00, 0x00, 0x00, 0x00, 0x00, 0x00, 0x00, 0x00, 0x00, 0x00,
   0x00, 0x00, 0x00, 0x00, 0x00, 0x00, 0x00, 0x00, 0x00, 0x00, 0x00, 0x00,
   0x00, 0x00, 0x00, 0x00, 0x00, 0x00, 0x00, 0x00, 0x00, 0x00, 0x00, 0x00,
   0x00, 0x00, 0x00, 0x00, 0x00, 0x00, 0x00, 0x00, 0x00, 0x00, 0x00, 0x00,
   0x00, 0x00, 0x00, 0x00, 0x00, 0x00, 0x00, 0x00, 0x00, 0x00, 0x00, 0x00,
   0x00, 0x00, 0x00, 0x00, 0x00, 0x00, 0x00, 0x00, 0x00, 0x00, 0x00, 0x00,
   0x00, 0x00, 0x00, 0x00, 0x00, 0x00, 0x00, 0x00, 0x00, 0x00, 0x00, 0x00,
   0x00, 0x00, 0x00, 0x00, 0x00, 0x00, 0x00, 0x00, 0x00, 0x00, 0x00, 0x00,
   0x00, 0x00, 0x00, 0x00, 0x00, 0x00, 0x00, 0x00, 0x00, 0x00, 0x00, 0x00,
   0x00, 0x00, 0x00, 0x00, 0x00, 0x00, 0x00, 0x00, 0x00, 0x00, 0x00, 0x00,
   0x00, 0x00, 0x00, 0x00, 0x00, 0x00, 0x00, 0x00, 0x00, 0x00, 0x00, 0x00,
   0x00, 0x00, 0x00, 0x00, 0x00, 0x00, 0x00, 0x00, 0x00, 0x00, 0x00, 0x00,
   0x00, 0x00, 0x00, 0x00, 0x00, 0x00, 0x00, 0x00, 0x00, 0x00, 0x00, 0x00,
   0x00, 0x00, 0x00, 0x00, 0x00, 0x00, 0x00, 0x00, 0x00, 0x00, 0x00, 0x00,
   0x00, 0x00, 0x00, 0x00, 0x00, 0x00, 0x00, 0x00, 0x00, 0x00, 0x00, 0x00,
   0x00, 0x00, 0x00, 0x00, 0x00, 0x00, 0x00, 0x00, 0x00, 0x00, 0x00, 0x00,
   0x00, 0x00, 0x00, 0x00, 0x00, 0x00, 0x00, 0x00, 0x00, 0x00, 0x00, 0x00,
   0x00, 0x00, 0x00, 0x00, 0x00, 0x00, 0x00, 0x00, 0x00, 0x00, 0x00, 0x00,
   0x00, 0x00, 0x00, 0x00, 0x00, 0x00, 0x00, 0x00, 0x00, 0x00, 0x00, 0x00,
   0x00, 0x00, 0x00, 0x00, 0x00, 0x00, 0x00, 0x00, 0x00, 0x00, 0x00, 0x00,
   0x00, 0x00, 0x00, 0x00, 0x00, 0x00, 0x00, 0x00, 0x00, 0x00, 0x00, 0x00,
   0x00, 0x00, 0x00, 0x00, 0x00, 0x00, 0x00, 0x00, 0x00, 0x00, 0x00, 0x00,
   0x00, 0x00, 0x00, 0x00, 0x00, 0x00, 0x00, 0x00, 0x00, 0x00, 0x00, 0x00,
   0x00, 0x00, 0x00, 0x00, 0x00, 0x00, 0x00, 0x00, 0x00, 0x00, 0x00, 0x00,
   0x00, 0x00, 0x00, 0x00, 0x00, 0x00, 0x00, 0x00, 0x00, 0x00, 0x00, 0x00,
   0x00, 0x00, 0x00, 0x00, 0x00, 0x00, 0x00, 0x00, 0x00, 0x00, 0x00, 0x00,
   0x00, 0x00, 0x00, 0x00, 0x00, 0x00, 0x00, 0x00, 0x00, 0x00, 0x00, 0x00,
   0x00, 0x00, 0x00, 0x00, 0x00, 0x00, 0x00, 0x00, 0x00, 0x00, 0x00, 0x00,
   0x00, 0x00, 0x00, 0x00, 0x00, 0x00, 0x00, 0x00, 0x00, 0x00, 0x00, 0x00,
   0x00, 0x00, 0x00, 0x00, 0x00, 0x00, 0x00, 0x00, 0x00, 0x00, 0x00, 0x00,
   0x00, 0x00, 0x00, 0x00, 0x00, 0x00, 0x00, 0x00, 0x00, 0x00, 0x00, 0x00,
   0x00, 0x00, 0x00, 0x00, 0x00, 0x00, 0x00, 0x00, 0x00, 0x00, 0x00, 0x00,
   0x00, 0x00, 0x00, 0x00, 0x00, 0x00, 0x00, 0x00, 0x00, 0x00, 0x00, 0x00,
   0x00, 0x00, 0x00, 0x00, 0x00, 0x00, 0x00, 0x00, 0x00, 0x00, 0x00, 0x00,
   0x00, 0x00, 0x00, 0x00, 0x00, 0x00, 0x00, 0x00, 0x00, 0x00, 0x00, 0x00,
   0x00, 0x00, 0x00, 0x00, 0x00, 0x00, 0x00, 0x00, 0x00, 0x00, 0x00, 0x00,
   0x00, 0x00, 0x00, 0x00, 0x00, 0x00, 0x00, 0x00, 0x00, 0x00, 0x00, 0x00,
   0x00, 0x00, 0x00, 0x00, 0x00, 0x00, 0x00, 0x00, 0x00, 0x00, 0x00, 0x00,
   0x00, 0x00, 0x00, 0x00, 0x00, 0x00, 0x00, 0x00, 0x00, 0x00, 0x00, 0x00,
   0x00, 0x00, 0x00, 0x00, 0x00, 0x00, 0x00, 0x00, 0x00, 0x00, 0x00, 0x00,
   0x00, 0x00, 0x00, 0x00, 0x00, 0x00, 0x00, 0x00, 0x00, 0x00, 0x00, 0x00,
   0x00, 0x00, 0x00, 0x00, 0x00, 0x00, 0x00, 0x00, 0x00, 0x00, 0x00, 0x00,
   0x00, 0x00, 0x00, 0x00, 0x00, 0x00, 0x00, 0x00, 0x00, 0x00, 0x00, 0x00,
   0x00, 0x00, 0x00, 0x00, 0x00, 0x00, 0x00, 0x00, 0x00, 0x00, 0x00, 0x00,
   0x00, 0x00, 0x00, 0x00, 0x00, 0x00, 0x00, 0x00, 0x00, 0x00, 0x00, 0x00,
   0x00, 0x00, 0x00, 0x00, 0x00, 0x00, 0x00, 0x00, 0x00, 0x00, 0x00, 0x00,
   0x00, 0x00, 0x00, 0x00, 0x00, 0x00, 0x00, 0x00, 0x00, 0x00, 0x00, 0x00,
   0x00, 0x00, 0x00, 0x00, 0x00, 0x00, 0x00, 0x00, 0x00, 0x00, 0x00, 0x00,
   0x00, 0x00, 0x00, 0x00, 0x00, 0x00, 0x00, 0x00, 0x00, 0x00, 0x00, 0x00,
   0x00, 0x00, 0x00, 0x00, 0x00, 0x00, 0x00, 0x00, 0x00, 0x00, 0x00, 0x00,
   0x00, 0x00, 0x00, 0x00, 0x00, 0x00, 0x00, 0x00, 0x00, 0x00, 0x00, 0x00,
   0x00, 0x00, 0x00, 0x00, 0x00, 0x00, 0x00, 0x00, 0x00, 0x00, 0x00, 0x00,
   0x00, 0x00, 0x00, 0x00, 0x00, 0x00, 0x00, 0x00, 0x00, 0x00, 0x00, 0x00,
   0x00, 0x00, 0x00, 0x00, 0x00, 0x00, 0x00, 0x00, 0x00, 0x00, 0x00, 0x00,
   0x00, 0x00, 0x00, 0x00, 0x00, 0x00, 0x00, 0x00, 0x00, 0x00, 0x00, 0x00,
   0x00, 0x00, 0x00, 0x00, 0x00, 0x00, 0x00, 0x00, 0x00, 0x00, 0x00, 0x00,
   0x00, 0x00, 0x00, 0x00, 0x00, 0x00, 0x00, 0x00, 0x00, 0x00, 0x00, 0x00,
   0x00, 0x00, 0x00, 0x00, 0x00, 0x00, 0x00, 0x00, 0x00, 0x00, 0x00, 0x00,
   0x00, 0x00, 0x00, 0x00, 0x00, 0x00, 0x00, 0x00, 0x00, 0x00, 0x00, 0x00,
   0x00, 0x00, 0x00, 0x00, 0x00, 0x00, 0x00, 0x00, 0x00, 0x00, 0x00, 0x00,
   0x00, 0x00, 0x00, 0x00, 0xc0, 0x0f, 0x00, 0x06, 0x00, 0x30, 0x30, 0x00,
   0x18, 0x70, 0x00, 0x32, 0x00, 0x01, 0x06, 0x0e, 0x7c, 0x1b, 0xfc, 0xc0,
   0x0f, 0x00, 0x00, 0x00, 0xf0, 0x61, 0x00, 0x00, 0x03, 0x00, 0x00, 0x00,
   0x00, 0xc0, 0x0f, 0x00, 0x06, 0x00, 0x30, 0x30, 0x00, 0x18, 0x70, 0x00,
   0x33, 0x80, 0x01, 0x06, 0x1f, 0x7c, 0x1b, 0xfc, 0xc0, 0x1f, 0x00, 0x00,
   0x00, 0xf0, 0x63, 0x00, 0x00, 0x03, 0x00, 0x00, 0x00, 0x00, 0xc0, 0x00,
   0x00, 0x06, 0x00, 0x30, 0x30, 0x00, 0x18, 0x70, 0x00, 0x03, 0x80, 0x01,
   0x86, 0x19, 0x60, 0x1b, 0x0c, 0xc0, 0x18, 0x00, 0x00, 0x00, 0x30, 0x07,
   0x00, 0x00, 0x03, 0x00, 0x00, 0x00, 0x00, 0xc0, 0xe0, 0x33, 0x3e, 0x1c,
   0x36, 0x36, 0x0e, 0x1b, 0xd8, 0xd8, 0x37, 0xce, 0x73, 0x86, 0x19, 0x20,
   0x1b, 0x0c, 0xc0, 0xd8, 0x63, 0xc3, 0xb1, 0x30, 0x66, 0x1c, 0x1b, 0xf3,
   0x8c, 0x01, 0x00, 0x00, 0xc0, 0xef, 0x7f, 0x7e, 0x36, 0x3f, 0x3f, 0x9b,
   0x1f, 0xd8, 0xf8, 0x37, 0xdf, 0xfb, 0x00, 0x18, 0x30, 0x00, 0xfc, 0xc0,
   0xf8, 0xe7, 0x67, 0xf3, 0x30, 0x66, 0x3e, 0x3f, 0xfb, 0x8d, 0x01, 0x00,
   0x00, 0xc0, 0x6f, 0x66, 0x66, 0x36, 0x33, 0x33, 0x9b, 0x19, 0xd8, 0x18,
   0x33, 0x93, 0x99, 0x00, 0x0c, 0x30, 0x00, 0xfc, 0xc0, 0x7f, 0x66, 0x66,
   0x33, 0x30, 0x66, 0x26, 0x33, 0x9b, 0xd9, 0x00, 0x00, 0x00, 0xc0, 0x60,
   0x66, 0x66, 0x3e, 0x33, 0x33, 0x9f, 0x19, 0x8c, 0x19, 0x33, 0x8f, 0x79,
   0x00, 0x0e, 0x10, 0x00, 0x0c, 0xde, 0x8f, 0x67, 0xe6, 0x33, 0x30, 0x66,
   0x1e, 0x33, 0xe3, 0xd9, 0x00, 0x00, 0x00, 0xc0, 0x60, 0x66, 0x66, 0x06,
   0x33, 0x33, 0x83, 0x19, 0xfc, 0x19, 0x33, 0x9c, 0xe1, 0x00, 0x07, 0x18,
   0x00, 0x0c, 0xde, 0xe0, 0x67, 0x66, 0x30, 0x30, 0x66, 0x38, 0x33, 0xfb,
   0xd9, 0x00, 0x00, 0x00, 0xc0, 0x60, 0x66, 0x66, 0x36, 0x33, 0x33, 0x9b,
   0x19, 0xfc, 0x19, 0x33, 0x99, 0xc9, 0x00, 0x03, 0x18, 0x00, 0x0c, 0xc0,
   0x60, 0x66, 0x66, 0x33, 0x30, 0x67, 0x32, 0x33, 0x9b, 0x51, 0x00, 0x00,
   0x00, 0xc0, 0x6f, 0x66, 0x7e, 0x36, 0x3f, 0x3f, 0x9b, 0x1f, 0x06, 0x1b,
   0x37, 0x9f, 0xfb, 0x80, 0xdf, 0x18, 0x00, 0xfc, 0xc0, 0xe0, 0xe7, 0x67,
   0x33, 0xf0, 0x63, 0x3e, 0x3f, 0xfb, 0x71, 0x00, 0x00, 0x00, 0xc0, 0x6f,
   0x66, 0x36, 0x1c, 0x36, 0x36, 0x0e, 0x1b, 0x06, 0x1b, 0x36, 0x0e, 0x73,
   0x80, 0xdf, 0x18, 0x00, 0xfc, 0xc0, 0xc0, 0x66, 0xc3, 0x31, 0xf0, 0x61,
   0x1c, 0x1b, 0xb3, 0x71, 0x00, 0x00, 0x00, 0x00, 0x00, 0x00, 0x00, 0x00,
   0x00, 0x00, 0x00, 0x00, 0x00, 0x00, 0x00, 0x00, 0x00, 0x00, 0x00, 0x00,
   0x00, 0x00, 0x00, 0x00, 0x60, 0x00, 0x00, 0x00, 0x00, 0x00, 0x03, 0x00,
   0x30, 0x00, 0x00, 0x00, 0x00, 0x00, 0x00, 0x00, 0x00, 0x00, 0x00, 0x00,
   0x00, 0x00, 0x00, 0x00, 0x00, 0x00, 0x00, 0x00, 0x00, 0x00, 0x00, 0x00,
   0x00, 0x60, 0x00, 0x00, 0x00, 0x00, 0x00, 0x03, 0x00, 0x3c, 0x00, 0x00,
   0x00, 0x00, 0x00, 0x00, 0x00, 0x00, 0x00, 0x00, 0x00, 0x00, 0x00, 0x00,
   0x00, 0x00, 0x00, 0x00, 0x00, 0x00, 0x00, 0x00, 0x00, 0x00, 0x60, 0x00,
   0x00, 0x00, 0x00, 0x00, 0x03, 0x00, 0x1c, 0x00, 0x00, 0x00, 0x00, 0x00,
   0x00, 0x00, 0x00, 0x00, 0x00, 0x00, 0x00, 0x00, 0x00, 0x00, 0x00, 0x00,
   0x00, 0x00, 0x00, 0x00, 0x00, 0x00, 0x00, 0x00, 0x00, 0x00, 0x00, 0x00,
   0x00, 0x00, 0x00, 0x00, 0x00, 0x00, 0x00, 0x00, 0x00, 0x00, 0x00, 0x00,
   0x00, 0x00, 0x00, 0x00, 0x00, 0x00, 0x00, 0x00, 0x00, 0x00, 0x00, 0x00,
   0x00, 0x00, 0x00, 0x00, 0x00, 0x00, 0x00, 0x00, 0x00, 0x00, 0x00, 0x00,
   0x00, 0x00, 0x00, 0x00, 0x00, 0x00, 0x00, 0x00, 0x00, 0x00, 0x00, 0x00,
   0x00, 0x00, 0x00, 0x00, 0x00, 0x00, 0x00, 0x00, 0x00, 0x00, 0x00, 0x00,
   0x00, 0x00, 0x00, 0x00, 0x00, 0x00, 0x00, 0x00, 0x00, 0x00, 0x00, 0x00,
   0x00, 0x00, 0x00, 0x00, 0x00, 0x00, 0x00, 0x00, 0x00, 0x00, 0x00, 0x00,
   0x00, 0x00, 0x00, 0x00, 0x00, 0x00, 0x00, 0x00, 0x00, 0x00, 0x00, 0x00,
   0x00, 0x00, 0x00, 0x00, 0x00, 0x00, 0x00, 0x00, 0x00, 0x00, 0x00, 0x00,
   0x00, 0x00, 0x00, 0x00, 0x00, 0x00, 0x00, 0x00, 0x00, 0x00, 0x00, 0x00,
   0x00, 0x00, 0x00, 0x00, 0x00, 0x00, 0x00, 0x00, 0x00, 0x00, 0x00, 0x00,
   0x00, 0x00, 0x00, 0x00, 0x00, 0x00, 0x00, 0x00, 0x00, 0x00, 0x00, 0x00,
   0x00, 0x00, 0x00, 0x00, 0x00, 0x00, 0x00, 0x00, 0x00, 0x00, 0x00, 0x00,
   0x00, 0x00, 0x00, 0x00, 0x00, 0x00, 0x00, 0x00, 0x00, 0x00, 0x00, 0x00,
   0x00, 0x00, 0x00, 0x00, 0x00, 0x00, 0x00, 0x00, 0x00, 0x00, 0x00, 0x00,
   0x00, 0x00, 0x00, 0x00, 0x00, 0x00, 0x00, 0x00, 0x00, 0x00, 0x00, 0x00,
   0x00, 0x00, 0x00, 0x00, 0x00, 0x00, 0x00, 0x00, 0x00, 0x00, 0x00, 0x00,
   0x00, 0x00, 0x00, 0x00, 0x00, 0x00, 0x00, 0x00, 0x00, 0x00, 0x00, 0x00,
   0x00, 0x00, 0x00, 0x00, 0x00, 0x00, 0x00, 0x00, 0x00, 0x00, 0x00, 0x00,
   0x00, 0x00, 0x00, 0x00, 0x00, 0x00, 0x00, 0x00, 0x00, 0x00, 0x00, 0x00,
   0x00, 0x00, 0x00, 0x00, 0x00, 0x00, 0x00, 0x00, 0x00, 0x00, 0x00, 0x00,
   0x00, 0x00, 0x00, 0x00, 0x00, 0x00, 0x00, 0x00, 0x00, 0x00, 0x00, 0x00,
   0x00, 0x00, 0x00, 0x00, 0x00, 0x00, 0x00, 0x00, 0x00, 0x00, 0x00, 0x00,
   0x00, 0x00, 0x00, 0x00, 0x00, 0x00, 0x00, 0x00, 0x00, 0x00, 0x00, 0x00,
   0x00, 0x00, 0x00, 0x00, 0x00, 0x00, 0x00, 0x00, 0x00, 0x00, 0x00, 0x00,
   0x00, 0x00, 0x00, 0x00, 0x00, 0x00, 0x00, 0x00, 0x00, 0x00, 0x00, 0x00,
   0x00, 0x00, 0x00, 0x00, 0x00, 0x00, 0x00, 0x00, 0x00, 0x00, 0x00, 0x00,
   0x00, 0x00, 0x00, 0x00, 0x00, 0x00, 0x00, 0x00, 0x00, 0x00, 0x00, 0x00,
   0x00, 0x00, 0x00, 0x00, 0x00, 0x00, 0x00, 0x00, 0x00, 0x00, 0x00, 0x00,
   0x00, 0x00, 0x00, 0x00, 0x00, 0x00, 0x00, 0x00, 0x00, 0x00, 0x00, 0x00,
   0x00, 0x00, 0x00, 0x00, 0x00, 0x00, 0x00, 0x00, 0x00, 0x00, 0x00, 0x00,
   0x00, 0x00, 0x00, 0x00, 0x00, 0x00, 0x00, 0x00, 0x00, 0x00, 0x00, 0x00,
   0x00, 0x00, 0x00, 0x00, 0x00, 0x00, 0x00, 0x00, 0x00, 0x00, 0x00, 0x00,
   0x00, 0x00, 0x00, 0x00, 0x00, 0x00, 0x00, 0x00, 0x00, 0x00, 0x00, 0x00,
   0x00, 0x00, 0x00, 0x00, 0x00, 0x00, 0x00, 0x00, 0x00, 0x00, 0x00, 0x00,
   0x00, 0x00, 0x00, 0x00, 0x00, 0x00, 0x00, 0x00, 0x00, 0x00, 0x00, 0x00,
   0x00, 0x00, 0x00, 0x00, 0x00, 0x00, 0x00, 0x00, 0x00, 0x00, 0x00, 0x00,
   0x00, 0x00, 0x00, 0x00, 0x00, 0x00, 0x00, 0x00, 0x00, 0x00, 0x00, 0x00,
   0x00, 0x00, 0x00, 0x00, 0x00, 0x00, 0x00, 0x00, 0x00, 0x00, 0x00, 0x00,
   0x00, 0x00, 0x00, 0x00, 0x00, 0x00, 0x00, 0x00, 0x00, 0x00, 0x00, 0x00,
   0x00, 0x00, 0x00, 0x00, 0x00, 0x00, 0x00, 0x00, 0x00, 0x00, 0x00, 0x00,
   0x00, 0x00, 0x00, 0x00, 0x00, 0x00, 0x00, 0x00, 0x00, 0x00, 0x00, 0x00,
   0x00, 0x00, 0x00, 0x00, 0x00, 0x00, 0x00, 0x00, 0x00, 0x00, 0x00, 0x00,
   0x00, 0x00, 0x00, 0x00, 0x00, 0x00, 0x00, 0x00, 0x00, 0x00, 0x00, 0x00,
   0x00, 0x00, 0x00, 0x00, 0x00, 0x00, 0x00, 0x00, 0x00, 0x00, 0x00, 0x00,
   0x00, 0x00, 0x00, 0x00, 0x00, 0x00, 0x00, 0x00, 0x00, 0x00, 0x00, 0x00,
   0x00, 0x00, 0x00, 0x00, 0x00, 0x00, 0x00, 0x00, 0x00, 0x00, 0x00, 0x00,
   0x00, 0x00, 0x00, 0x00, 0x00, 0x00, 0x00, 0x30, 0x00, 0x00, 0x00, 0x00,
   0x00, 0x00, 0x00, 0x00, 0x00, 0x00, 0x00, 0x00, 0x00, 0x00, 0x00, 0x00,
   0x00, 0x00, 0x00, 0x00, 0x00, 0x00, 0x00, 0x00, 0x00, 0x00, 0x00, 0x00,
   0x00, 0x00, 0x00, 0x00, 0x18, 0x00, 0x00, 0x00, 0x00, 0x00, 0x00, 0x00,
   0x00, 0x00, 0x00, 0x00, 0x00, 0x00, 0x00, 0x00, 0x00, 0x00, 0x00, 0x00,
   0x00, 0x00, 0x00, 0x00, 0x00, 0x00, 0x00, 0x00, 0x00, 0x00, 0x00, 0x00,
   0x00, 0x0c, 0x00, 0x00, 0x00, 0x00, 0x00, 0x00, 0x00, 0x00, 0x00, 0x00,
   0x00, 0x00, 0x00, 0x00, 0x00, 0x00, 0x00, 0x00, 0x00, 0x00, 0x00, 0x00,
   0x00, 0x00, 0x00, 0x00, 0x00, 0x00, 0x00, 0x00, 0x00, 0x00, 0x04, 0x00,
   0x00, 0x00, 0x00, 0x00, 0x00, 0x00, 0x00, 0x00, 0x00, 0x00, 0x00, 0x00,
   0x00, 0x00, 0x00, 0x00, 0x00, 0x00, 0x00, 0x00, 0x00, 0x00, 0x00, 0x00,
   0x00, 0x00, 0x00, 0x00, 0x00, 0x00, 0x00, 0x02, 0x00, 0x00, 0x00, 0x00,
   0x00, 0x00, 0x00, 0x00, 0x00, 0x00, 0x00, 0x00, 0x00, 0x00, 0x00, 0x00,
   0x00, 0x00, 0x00, 0x00, 0x00, 0x00, 0x00, 0x00, 0x00, 0x00, 0x00, 0x00,
   0x00, 0x00, 0x00, 0x00, 0x03, 0x00, 0x00, 0x00, 0x00, 0x00, 0x00, 0x00,
   0x00, 0x00, 0x00, 0x00, 0x00, 0x00, 0x00, 0x00, 0x00, 0x00, 0x00, 0x00,
   0x00, 0x00, 0x00, 0x00, 0x00, 0x00, 0x00, 0x00, 0x00, 0x00, 0x00, 0x00,
   0x80, 0x01, 0x00, 0x00, 0x00, 0x00, 0x00, 0x00, 0x00, 0x00, 0x00, 0x00,
   0x00, 0x00, 0x00, 0x00, 0x00, 0x00, 0x00, 0x00, 0x00, 0x00, 0x00, 0x00,
   0x00, 0x00, 0x00, 0x00, 0x00, 0x00, 0x00, 0x00, 0x00, 0xc0, 0x00, 0x00,
   0x00, 0x00, 0x00, 0x00, 0x00, 0x00, 0x00, 0x00, 0x00, 0x00, 0x00, 0x00,
   0x00, 0x00, 0x00, 0x00, 0x00, 0x00, 0x00, 0x00, 0x00, 0x00, 0x00, 0x00,
   0x00, 0x00, 0x00, 0x00, 0x00, 0x00, 0x60, 0x00, 0x00, 0x00, 0x00, 0x00,
   0x00, 0x00, 0x00, 0x00, 0x00, 0x00, 0x00, 0x00, 0x00, 0x00, 0x00, 0x00,
   0x00, 0x00, 0x00, 0x00, 0x00, 0x00, 0x00, 0x00, 0x00, 0x00, 0x00, 0x00,
   0x00, 0x00, 0x00, 0x70, 0x00, 0x00, 0x00, 0x00, 0x00, 0x00, 0x00, 0x00,
   0x00, 0x00, 0x00, 0x00, 0x00, 0x00, 0x00, 0x00, 0x00, 0x00, 0x00, 0x00,
   0x00, 0x00, 0x00, 0x00, 0x00, 0x00, 0x00, 0x00, 0x00, 0x00, 0x00, 0x00,
   0x30, 0x00, 0x00, 0x00, 0x00, 0x00, 0x00, 0x00, 0x00, 0x00, 0x00, 0x00,
   0x00, 0x00, 0x00, 0x00, 0x00, 0x00, 0x00, 0x00, 0x00, 0x00, 0x00, 0x00,
   0x00, 0x00, 0x00, 0x00, 0x00, 0x00, 0x00, 0x00, 0x00, 0x38, 0x00, 0x00,
   0x00, 0x00, 0x00, 0x00, 0x00, 0x00, 0x00, 0x00, 0x00, 0x00, 0x00, 0x00,
   0x00, 0x00, 0x00, 0x00, 0x00, 0x00, 0x00, 0x00, 0x00, 0x00, 0x00, 0x00,
   0x00, 0x00, 0x00, 0x00, 0x00, 0x00, 0x1c, 0x00, 0x00, 0x00, 0x00, 0x00,
   0x00, 0x00, 0x00, 0x00, 0x00, 0x00, 0x00, 0x00, 0x00, 0x00, 0x00, 0x00,
   0x00, 0x00, 0x00, 0x00, 0x00, 0x00, 0x00, 0x00, 0x00, 0x00, 0x00, 0x00,
   0x00, 0x00, 0x00, 0x0e, 0x00, 0x00, 0x00, 0x00, 0x00, 0x00, 0x00, 0x00,
   0x00, 0x00, 0x00, 0x00, 0x00, 0x00, 0x00, 0x00, 0x00, 0x00, 0xf0, 0xff,
   0x33, 0x3c, 0xc3, 0xcf, 0x33, 0xff, 0x3f, 0x00, 0x00, 0x00, 0x00, 0x00,
   0x0e, 0x00, 0x00, 0x00, 0x00, 0x00, 0x00, 0x00, 0x00, 0x00, 0x00, 0x00,
   0x00, 0x00, 0x00, 0x00, 0x00, 0x00, 0x00, 0xf0, 0xff, 0x33, 0x3c, 0xc3,
   0xcf, 0x33, 0xff, 0x3f, 0x00, 0x00, 0x00, 0x00, 0x00, 0x07, 0x00, 0x00,
   0x00, 0x00, 0x00, 0x00, 0x00, 0x00, 0x00, 0x00, 0x00, 0x00, 0x00, 0x00,
   0x00, 0x00, 0x00, 0x00, 0x30, 0x00, 0x03, 0x33, 0xc3, 0x30, 0x03, 0x03,
   0x30, 0x00, 0x00, 0x00, 0x00, 0x80, 0x07, 0x00, 0xfc, 0xff, 0x07, 0x00,
   0x00, 0x00, 0x00, 0x00, 0x00, 0x00, 0x00, 0x00, 0x00, 0x00, 0x00, 0x00,
   0x00, 0x30, 0x00, 0x03, 0x33, 0xc3, 0x30, 0x03, 0x03, 0x30, 0x00, 0x00,
   0x00, 0x00, 0x80, 0x03, 0xc0, 0xff, 0xff, 0x3f, 0x00, 0x00, 0x00, 0x00,
   0x00, 0x00, 0x00, 0x00, 0x00, 0x00, 0x00, 0x00, 0x00, 0x00, 0x30, 0x3f,
   0x33, 0xf3, 0xcf, 0xcf, 0x0f, 0xf3, 0x33, 0x00, 0x00, 0x00, 0x00, 0xc0,
   0x03, 0xfc, 0xff, 0xff, 0xff, 0x01, 0x00, 0x00, 0x00, 0x00, 0x00, 0x00,
   0x00, 0x00, 0x00, 0x00, 0x00, 0x00, 0x00, 0x30, 0x3f, 0x33, 0xf3, 0xcf,
   0xcf, 0x0f, 0xf3, 0x33, 0x00, 0x00, 0x00, 0x00, 0xe0, 0x01, 0xff, 0xff,
   0xff, 0xff, 0x07, 0x00, 0x00, 0x00, 0x00, 0x00, 0x00, 0x00, 0x00, 0x00,
   0x00, 0x00, 0x00, 0x00, 0x30, 0x3f, 0x03, 0x03, 0xfc, 0xc3, 0x3c, 0xf3,
   0x33, 0x00, 0x00, 0x00, 0x00, 0xe0, 0x01, 0x00, 0xfc, 0xff, 0xff, 0x0f,
   0x00, 0x00, 0x00, 0x00, 0x00, 0x00, 0x00, 0x00, 0x00, 0x00, 0x00, 0x00,
   0x00, 0x30, 0x3f, 0x03, 0x03, 0xfc, 0xc3, 0x3c, 0xf3, 0x33, 0x00, 0x00,
   0x00, 0x00, 0xf0, 0x00, 0x00, 0x80, 0xff, 0xff, 0x3f, 0x00, 0x00, 0x00,
   0x00, 0x00, 0x00, 0x00, 0x00, 0x00, 0x00, 0x00, 0x00, 0x00, 0x30, 0x3f,
   0x33, 0x30, 0x30, 0xff, 0x00, 0xf3, 0x33, 0x00, 0x00, 0x00, 0x00, 0xf8,
   0x00, 0x00, 0x00, 0xf8, 0xff, 0x7f, 0x00, 0x00, 0x00, 0x00, 0x00, 0x00,
   0x00, 0x00, 0x00, 0x00, 0x00, 0x00, 0x00, 0x30, 0x3f, 0x33, 0x30, 0x30,
   0xff, 0x00, 0xf3, 0x33, 0x00, 0x00, 0x00, 0x00, 0xf8, 0x00, 0x00, 0x00,
   0xc0, 0xff, 0xff, 0x00, 0x00, 0x00, 0x00, 0x00, 0x00, 0x00, 0x00, 0x00,
   0x00, 0x00, 0x00, 0x00, 0x30, 0x00, 0x03, 0xc0, 0x0f, 0xf3, 0x3c, 0x03,
   0x30, 0x00, 0x00, 0x00, 0x00, 0x7c, 0x00, 0x00, 0x00, 0x00, 0xff, 0xff,
   0x01, 0x00, 0x00, 0x00, 0x00, 0x00, 0x00, 0x00, 0x00, 0x00, 0x00, 0x00,
   0x00, 0x30, 0x00, 0x03, 0xc0, 0x0f, 0xf3, 0x3c, 0x03, 0x30, 0x00, 0x00,
   0x00, 0x00, 0x7c, 0x00, 0x00, 0x00, 0x00, 0xfc, 0xff, 0x03, 0x00, 0x00,
   0x00, 0x00, 0x00, 0x00, 0x00, 0x00, 0x00, 0x00, 0x00, 0x00, 0xf0, 0xff,
   0x33, 0x33, 0x33, 0x33, 0x33, 0xff, 0x3f, 0x00, 0x00, 0x00, 0x00, 0x7e,
   0x00, 0x00, 0x00, 0x00, 0xf0, 0xff, 0x03, 0x00, 0x00, 0x00, 0x00, 0x00,
   0x00, 0x00, 0x00, 0x00, 0x00, 0x00, 0x00, 0xf0, 0xff, 0x33, 0x33, 0x33,
   0x33, 0x33, 0xff, 0x3f, 0x00, 0x00, 0x00, 0x00, 0x3e, 0xf8, 0xff, 0xff,
   0x3f, 0xe0, 0xff, 0x07, 0x00, 0x00, 0x00, 0x00, 0x00, 0x00, 0x00, 0x00,
   0x00, 0x00, 0x00, 0x00, 0x00, 0x00, 0x30, 0x00, 0x0c, 0x3c, 0x0f, 0x00,
   0x00, 0x00, 0x00, 0x00, 0x00, 0x3f, 0xf8, 0xff, 0xff, 0xff, 0xc1, 0xff,
   0x0f, 0x00, 0x00, 0x00, 0x00, 0x00, 0x00, 0x00, 0x00, 0x00, 0x00, 0x00,
   0x00, 0x00, 0x00, 0x30, 0x00, 0x0c, 0x3c, 0x0f, 0x00, 0x00, 0x00, 0x00,
   0x00, 0x00, 0x3f, 0xf8, 0xff, 0xff, 0xff, 0x87, 0xff, 0x0f, 0xf0, 0x0f,
   0x00, 0x38, 0x00, 0x00, 0x1c, 0x70, 0x00, 0xc0, 0x01, 0x00, 0x00, 0xc0,
   0x03, 0xcc, 0x30, 0x0c, 0x0f, 0x33, 0x33, 0x00, 0x00, 0x00, 0x00, 0x3f,
   0xf8, 0xff, 0xff, 0xff, 0x1f, 0xff, 0x0f, 0xf0, 0x0f, 0x00, 0x38, 0x00,
   0x00, 0x1c, 0x70, 0x00, 0xc0, 0x01, 0x00, 0x00, 0xc0, 0x03, 0xcc, 0x30,
   0x0c, 0x0f, 0x33, 0x33, 0x00, 0x00, 0x00, 0x80, 0x3f, 0xf8, 0x00, 0xfe,
   0xf7, 0x3f, 0xfe, 0x1f, 0xf0, 0x07, 0x00, 0x38, 0x00, 0x00, 0x1c, 0x70,
   0x00, 0xc0, 0x01, 0x00, 0x30, 0x33, 0xc0, 0xcc, 0x30, 0x33, 0xcc, 0xfc,
   0x0f, 0x00, 0x00, 0x00, 0x80, 0x1f, 0x78, 0x00, 0xf0, 0x87, 0x7f, 0xfe,
   0x1f, 0x70, 0x00, 0xc6, 0xb8, 0xc1, 0x83, 0x1d, 0x76, 0x3c, 0xd8, 0x01,
   0x00, 0x30, 0x33, 0xc0, 0xcc, 0x30, 0x33, 0xcc, 0xfc, 0x0f, 0x00, 0x00,
   0x00, 0xc0, 0x1f, 0x78, 0x00, 0xe0, 0x07, 0x7f, 0xfc, 0x1f, 0x70, 0xe0,
   0xff, 0xf9, 0xe3, 0xc7, 0x1f, 0x7f, 0x7e, 0xfc, 0x01, 0x00, 0x30, 0xcf,
   0x33, 0x0c, 0x3f, 0xfc, 0xc0, 0xcc, 0x0f, 0x00, 0x00, 0x00, 0xc0, 0x1f,
   0x78, 0x00, 0xc0, 0x0f, 0x7e, 0xfc, 0x3f, 0xf0, 0xe7, 0xff, 0xf9, 0xf7,
   0xce, 0x1f, 0x7f, 0xef, 0xfc, 0x01, 0x00, 0x30, 0xcf, 0x33, 0x0c, 0x3f,
   0xfc, 0xc0, 0xcc, 0x0f, 0x00, 0x00, 0x00, 0xc0, 0x1f, 0x78, 0x00, 0xc0,
   0x0f, 0xfc, 0xf8, 0x3f, 0xf0, 0xe7, 0xdc, 0x39, 0x77, 0xee, 0x9d, 0x7b,
   0xe7, 0xde, 0x01, 0x00, 0xc0, 0x00, 0xf0, 0x00, 0xff, 0x30, 0xf3, 0xcc,
   0x3f, 0x00, 0x00, 0x00, 0xe0, 0x1f, 0x78, 0x00, 0x80, 0x0f, 0xfc, 0xf8,
   0x3f, 0xf0, 0xe7, 0xdc, 0x39, 0xf7, 0xef, 0x9c, 0x7b, 0xff, 0xce, 0x01,
   0x00, 0xc0, 0x00, 0xf0, 0x00, 0xff, 0x30, 0xf3, 0xcc, 0x3f, 0x00, 0x00,
   0x00, 0xe0, 0x1f, 0x78, 0x00, 0x80, 0x0f, 0xfc, 0xf0, 0x3f, 0xf0, 0xe0,
   0xdc, 0x39, 0xf7, 0xef, 0x9c, 0x73, 0xff, 0xce, 0x01, 0x00, 0x30, 0x30,
   0xf3, 0x33, 0xf3, 0xcc, 0x33, 0xcf, 0x30, 0x00, 0x00, 0x00, 0xe0, 0x1f,
   0x78, 0x00, 0x80, 0x0f, 0xfc, 0xf0, 0x3f, 0x70, 0xe0, 0xdc, 0x39, 0xf7,
   0xe0, 0x9c, 0x73, 0x07, 0xce, 0x01, 0x00, 0x30, 0x30, 0xf3, 0x33, 0xf3,
   0xcc, 0x33, 0xcf, 0x30, 0x00, 0x00, 0x00, 0xe0, 0x1f, 0x78, 0x00, 0xc0,
   0xff, 0xff, 0xf0, 0x3f, 0x70, 0xe0, 0xdc, 0x39, 0x77, 0xe0, 0x9c, 0x73,
   0x07, 0xce, 0x01, 0x00, 0xf0, 0xc3, 0x00, 0xc0, 0x3c, 0xff, 0x0f, 0xcf,
   0x30, 0x00, 0x00, 0x00, 0xe0, 0x1f, 0x78, 0x00, 0xe0, 0xff, 0xff, 0xf0,
   0x3f, 0xf0, 0xe3, 0xdc, 0x39, 0x77, 0xee, 0x9d, 0x7b, 0xe7, 0xde, 0x01,
   0x00, 0xf0, 0xc3, 0x00, 0xc0, 0x3c, 0xff, 0x0f, 0xcf, 0x30, 0x00, 0x00,
   0x00, 0xf0, 0x1f, 0x78, 0x00, 0xf0, 0xff, 0xff, 0xe0, 0x3f, 0xf0, 0xef,
   0xdc, 0xf9, 0xf3, 0xcf, 0x1f, 0x7f, 0xff, 0xfc, 0x01, 0x00, 0x00, 0xf3,
   0x03, 0x30, 0xff, 0x3c, 0x33, 0x30, 0x0c, 0x00, 0x00, 0x00, 0xf0, 0x1f,
   0x78, 0x00, 0xfc, 0xff, 0xff, 0xe0, 0x3f, 0xf0, 0xef, 0xdc, 0xf9, 0xe3,
   0xc7, 0x1f, 0x7f, 0x7e, 0xfc, 0x01, 0x00, 0x00, 0xf3, 0x03, 0x30, 0xff,
   0x3c, 0x33, 0x30, 0x0c, 0x00, 0x00, 0x00, 0xf0, 0x1f, 0x78, 0x80, 0xff,
   0x07, 0xf8, 0xe0, 0x3f, 0x00, 0x00, 0x00, 0x80, 0xc1, 0x83, 0x01, 0x06,
   0x3c, 0x18, 0x00, 0x00, 0xc0, 0x00, 0xcc, 0x30, 0xf3, 0x30, 0x3c, 0xcc,
   0x0f, 0x00, 0x00, 0x00, 0xf0, 0x1f, 0xf8, 0xff, 0xff, 0x00, 0xf8, 0xe0,
   0x3f, 0x00, 0x00, 0x00, 0x00, 0x00, 0x00, 0x00, 0x00, 0x00, 0x00, 0x00,
   0x00, 0xc0, 0x00, 0xcc, 0x30, 0xf3, 0x30, 0x3c, 0xcc, 0x0f, 0x00, 0x00,
   0x00, 0xf0, 0x3f, 0xf8, 0xff, 0x3f, 0x00, 0xf8, 0xe0, 0x3f, 0x00, 0x00,
   0x00, 0x00, 0x00, 0x00, 0x00, 0x00, 0x00, 0x00, 0x00, 0x00, 0x30, 0xff,
   0x03, 0xcf, 0xcf, 0x33, 0xf3, 0x30, 0x3c, 0x00, 0x00, 0x00, 0xf0, 0x3f,
   0xf8, 0xff, 0x1f, 0x00, 0xf8, 0xe0, 0x3f, 0x00, 0x00, 0x00, 0x00, 0xf0,
   0x00, 0x38, 0x0e, 0xc0, 0x01, 0x00, 0x00, 0x30, 0xff, 0x03, 0xcf, 0xcf,
   0x33, 0xf3, 0x30, 0x3c, 0x00, 0x00, 0x00, 0xf0, 0x3f, 0xf8, 0xff, 0x0f,
   0x00, 0xf8, 0xe0, 0x3f, 0x00, 0x00, 0x00, 0x00, 0xf8, 0x00, 0x1c, 0x07,
   0xc0, 0x01, 0x00, 0x00, 0x00, 0x30, 0x00, 0xf3, 0x0f, 0x00, 0xff, 0x0f,
   0x30, 0x00, 0x00, 0x00, 0xf0, 0x3f, 0xf8, 0xc0, 0x0f, 0x00, 0xf8, 0xe0,
   0x1f, 0x00, 0x00, 0x00, 0x00, 0xf8, 0x00, 0x1c, 0x00, 0xc0, 0x01, 0x00,
   0x00, 0x00, 0x30, 0x00, 0xf3, 0x0f, 0x00, 0xff, 0x0f, 0x30, 0x00, 0x00,
   0x00, 0xf0, 0x7f, 0xf8, 0xc0, 0x0f, 0x00, 0xf8, 0xe0, 0x1f, 0x00, 0x00,
   0x00, 0x00, 0xfc, 0xb8, 0x3f, 0xc7, 0xe7, 0xf3, 0x01, 0x00, 0x00, 0x0f,
   0x33, 0x30, 0x00, 0xff, 0x3c, 0xf0, 0x3f, 0x00, 0x00, 0x00, 0xf0, 0x7f,
   0xf8, 0xc0, 0x07, 0x00, 0xf8, 0xe0, 0x1f, 0x00, 0x00, 0x00, 0x00, 0xfc,
   0xf8, 0x3f, 0xe7, 0xf7, 0xfb, 0x03, 0x00, 0x00, 0x0f, 0x33, 0x30, 0x00,
   0xff, 0x3c, 0xf0, 0x3f, 0x00, 0x00, 0x00, 0xf0, 0x7f, 0xf8, 0xc0, 0x0f,
   0x00, 0xf8, 0xe0, 0x1f, 0x00, 0x00, 0x00, 0x00, 0xec, 0xf8, 0x1e, 0x77,
   0xe6, 0x99, 0x03, 0x00, 0xf0, 0xc3, 0x30, 0x33, 0xfc, 0x3c, 0xfc, 0xc0,
   0x3f, 0x00, 0x00, 0x00, 0xe0, 0xff, 0xf8, 0xc1, 0x0f, 0x00, 0xf8, 0xe0,
   0x0f, 0x00, 0x00, 0x00, 0x00, 0xee, 0x38, 0x8e, 0x73, 0xe2, 0x1c, 0x01,
   0x00, 0xf0, 0xc3, 0x30, 0x33, 0xfc, 0x3c, 0xfc, 0xc0, 0x3f, 0x00, 0x00,
   0x00, 0xe0, 0xff, 0xf8, 0x83, 0x1f, 0x00, 0xf8, 0xe0, 0x0f, 0x00, 0x00,
   0x00, 0x00, 0xee, 0x1c, 0x8e, 0xf3, 0xe1, 0x7c, 0x00, 0x00, 0x00, 0xf3,
   0xf3, 0x3c, 0x30, 0x33, 0x3f, 0xfc, 0x00, 0x00, 0x00, 0x00, 0xe0, 0xff,
   0xf1, 0x87, 0x3f, 0x00, 0xf8, 0xe0, 0x0f, 0x00, 0x00, 0x00, 0x00, 0xef,
   0x1c, 0x8e, 0xf3, 0xe3, 0xf8, 0x01, 0x00, 0x00, 0xf3, 0xf3, 0x3c, 0x30,
   0x33, 0x3f, 0xfc, 0x00, 0x00, 0x00, 0x00, 0xe0, 0xff, 0xf3, 0x3f, 0xff,
   0x01, 0xf8, 0xe0, 0x07, 0x00, 0x00, 0x00, 0x00, 0xff, 0x1c, 0x8e, 0xc3,
   0xf7, 0xf0, 0x01, 0x00, 0xf0, 0xf3, 0xcc, 0x0c, 0x30, 0x3c, 0x33, 0xfc,
   0x03, 0x00, 0x00, 0x00, 0xc0, 0xff, 0xe3, 0xff, 0xff, 0xff, 0xff, 0xe0,
   0x07, 0x00, 0x00, 0x00, 0x00, 0xff, 0x1c, 0x8e, 0x83, 0x77, 0xc0, 0x01,
   0x00, 0xf0, 0xf3, 0xcc, 0x0c, 0x30, 0x3c, 0x33, 0xfc, 0x03, 0x00, 0x00,
   0x00, 0xc0, 0xff, 0x87, 0xff, 0xff, 0xff, 0xff, 0xf0, 0x03, 0x00, 0x00,
   0x00, 0x80, 0xe3, 0x1c, 0xcf, 0x39, 0x73, 0xce, 0x01, 0x00, 0x30, 0x33,
   0xc3, 0x30, 0xcf, 0xc3, 0x03, 0xfc, 0x0c, 0x00, 0x00, 0x00, 0x80, 0xff,
   0x0f, 0xfe, 0xff, 0xff, 0xff, 0xf0, 0x03, 0x00, 0x00, 0x00, 0x80, 0xe3,
   0x0e, 0xdf, 0xf9, 0xf3, 0xfe, 0x01, 0x00, 0x30, 0x33, 0xc3, 0x30, 0xcf,
   0xc3, 0x03, 0xfc, 0x0c, 0x00, 0x00, 0x00, 0x80, 0xff, 0x1f, 0xf0, 0xff,
   0xff, 0x7f, 0xf0, 0x01, 0x00, 0x00, 0x00, 0xc0, 0xe3, 0x0e, 0xce, 0xf9,
   0xf1, 0xfc, 0x00, 0x00, 0x30, 0x00, 0x0c, 0xcf, 0x3c, 0x30, 0x0c, 0x3c,
   0x03, 0x00, 0x00, 0x00, 0x00, 0xff, 0x7f, 0x00, 0x00, 0x00, 0x00, 0xf0,
   0x01, 0x00, 0x00, 0x00, 0x00, 0x00, 0x00, 0x00, 0x00, 0x00, 0x00, 0x00,
   0x00, 0x30, 0x00, 0x0c, 0xcf, 0x3c, 0x30, 0x0c, 0x3c, 0x03, 0x00, 0x00,
   0x00, 0x00, 0xfe, 0xff, 0x00, 0x00, 0x00, 0x00, 0xf8, 0x01, 0x00, 0x00,
   0x00, 0x00, 0x00, 0x00, 0x00, 0x00, 0x00, 0x00, 0x00, 0x00, 0xf0, 0xfc,
   0xcf, 0x0c, 0xcc, 0x33, 0xf0, 0xff, 0x30, 0x00, 0x00, 0x00, 0x00, 0xfe,
   0xff, 0x03, 0x00, 0x00, 0x00, 0xf8, 0x00, 0x00, 0x00, 0x00, 0x00, 0x00,
   0x00, 0x00, 0x00, 0x00, 0x00, 0x00, 0x00, 0xf0, 0xfc, 0xcf, 0x0c, 0xcc,
   0x33, 0xf0, 0xff, 0x30, 0x00, 0x00, 0x00, 0x00, 0xfc, 0xff, 0x0f, 0x00,
   0x00, 0x00, 0x78, 0x00, 0x00, 0x00, 0x00, 0x00, 0x00, 0x00, 0x00, 0x00,
   0x00, 0x00, 0x00, 0x00, 0x00, 0x00, 0x30, 0xfc, 0x33, 0xff, 0x33, 0xf0,
   0x3f, 0x00, 0x00, 0x00, 0x00, 0xf8, 0xff, 0x7f, 0x00, 0x00, 0x00, 0x7c,
   0x00, 0x00, 0x00, 0x00, 0x00, 0x00, 0x00, 0x00, 0x00, 0x00, 0x00, 0x00,
   0x00, 0x00, 0x00, 0x30, 0xfc, 0x33, 0xff, 0x33, 0xf0, 0x3f, 0x00, 0x00,
   0x00, 0x00, 0xf0, 0xff, 0xff, 0x07, 0x00, 0x00, 0x3c, 0x00, 0x00, 0x00,
   0x00, 0x00, 0x00, 0x00, 0x00, 0x00, 0x00, 0x00, 0x00, 0x00, 0xf0, 0xff,
   0xc3, 0xf3, 0xfc, 0x00, 0x3f, 0x33, 0x0f, 0x00, 0x00, 0x00, 0x00, 0xc0,
   0xff, 0xff, 0xff, 0x00, 0x00, 0x3e, 0x00, 0x00, 0x00, 0x00, 0x00, 0x00,
   0x00, 0x00, 0x00, 0x00, 0x00, 0x00, 0x00, 0xf0, 0xff, 0xc3, 0xf3, 0xfc,
   0x00, 0x3f, 0x33, 0x0f, 0x00, 0x00, 0x00, 0x00, 0x80, 0xff, 0xff, 0xff,
   0xff, 0x03, 0x1e, 0x00, 0x00, 0x00, 0x00, 0x00, 0x00, 0x00, 0x00, 0x00,
   0x00, 0x00, 0x00, 0x00, 0x30, 0x00, 0xf3, 0x33, 0xcc, 0xcf, 0x3f, 0xf0,
   0x0f, 0x00, 0x00, 0x00, 0x00, 0x00, 0xfe, 0xff, 0xff, 0xff, 0x01, 0x0e,
   0x00, 0x00, 0x00, 0x00, 0x00, 0x00, 0x00, 0x00, 0x00, 0x00, 0x00, 0x00,
   0x00, 0x30, 0x00, 0xf3, 0x33, 0xcc, 0xcf, 0x3f, 0xf0, 0x0f, 0x00, 0x00,
   0x00, 0x00, 0x00, 0xf0, 0xff, 0xff, 0x1f, 0x00, 0x0f, 0x00, 0x00, 0x00,
   0x00, 0x00, 0x00, 0x00, 0x00, 0x00, 0x00, 0x00, 0x00, 0x00, 0x30, 0x3f,
   0xc3, 0xff, 0x00, 0xc0, 0xf3, 0x3f, 0x0c, 0x00, 0x00, 0x00, 0x00, 0x00,
   0x80, 0xff, 0xff, 0x00, 0x00, 0x07, 0x00, 0x00, 0x00, 0x00, 0x00, 0x00,
   0x00, 0x00, 0x00, 0x00, 0x00, 0x00, 0x00, 0x30, 0x3f, 0xc3, 0xff, 0x00,
   0xc0, 0xf3, 0x3f, 0x0c, 0x00, 0x00, 0x00, 0x00, 0x00, 0x00, 0x00, 0x00,
   0x00, 0x80, 0x03, 0x00, 0x00, 0x00, 0x00, 0x00, 0x00, 0x00, 0x00, 0x00,
   0x00, 0x00, 0x00, 0x00, 0x30, 0x3f, 0x03, 0x0c, 0x3f, 0xfc, 0x30, 0x3c,
   0x0f, 0x00, 0x00, 0x00, 0x00, 0x00, 0x00, 0x00, 0x00, 0x00, 0x80, 0x03,
   0x00, 0x00, 0x00, 0x00, 0x00, 0x00, 0x00, 0x00, 0x00, 0x00, 0x00, 0x00,
   0x00, 0x30, 0x3f, 0x03, 0x0c, 0x3f, 0xfc, 0x30, 0x3c, 0x0f, 0x00, 0x00,
   0x00, 0x00, 0x00, 0x00, 0x00, 0x00, 0x00, 0xc0, 0x01, 0x00, 0x00, 0x00,
   0x00, 0x00, 0x00, 0x00, 0x00, 0x00, 0x00, 0x00, 0x00, 0x00, 0x30, 0x3f,
   0xc3, 0xcc, 0xcc, 0xf3, 0x30, 0x30, 0x3c, 0x00, 0x00, 0x00, 0x00, 0x00,
   0x00, 0x00, 0x00, 0x00, 0xe0, 0x00, 0x00, 0x00, 0x00, 0x00, 0x00, 0x00,
   0x00, 0x00, 0x00, 0x00, 0x00, 0x00, 0x00, 0x30, 0x3f, 0xc3, 0xcc, 0xcc,
   0xf3, 0x30, 0x30, 0x3c, 0x00, 0x00, 0x00, 0x00, 0x00, 0x00, 0x00, 0x00,
   0x00, 0x60, 0x00, 0x00, 0x00, 0x00, 0x00, 0x00, 0x00, 0x00, 0x00, 0x00,
   0x00, 0x00, 0x00, 0x00, 0x30, 0x00, 0xc3, 0xc0, 0xfc, 0x0c, 0xc3, 0xc3,
   0x03, 0x00, 0x00, 0x00, 0x00, 0x00, 0x00, 0x00, 0x00, 0x00, 0x70, 0x00,
   0x00, 0x00, 0x00, 0x00, 0x00, 0x00, 0x00, 0x00, 0x00, 0x00, 0x00, 0x00,
   0x00, 0x30, 0x00, 0xc3, 0xc0, 0xfc, 0x0c, 0xc3, 0xc3, 0x03, 0x00, 0x00,
   0x00, 0x00, 0x00, 0x00, 0x00, 0x00, 0x00, 0x38, 0x00, 0x00, 0x00, 0x00,
   0x00, 0x00, 0x00, 0x00, 0x00, 0x00, 0x00, 0x00, 0x00, 0x00, 0xf0, 0xff,
   0x03, 0x3c, 0x3f, 0xc3, 0xff, 0x00, 0x0c, 0x00, 0x00, 0x00, 0x00, 0x00,
   0x00, 0x00, 0x00, 0x00, 0x18, 0x00, 0x00, 0x00, 0x00, 0x00, 0x00, 0x00,
   0x00, 0x00, 0x00, 0x00, 0x00, 0x00, 0x00, 0xf0, 0xff, 0x03, 0x3c, 0x3f,
   0xc3, 0xff, 0x00, 0x0c, 0x00, 0x00, 0x00, 0x00, 0x00, 0x00, 0x00, 0x00,
   0x00, 0x0c, 0x00, 0x00, 0x00, 0x00, 0x00, 0x00, 0x00, 0x00, 0x00, 0x00,
   0x00, 0x00, 0x00, 0x00, 0x00, 0x00, 0x00, 0x00, 0x00, 0x00, 0x00, 0x00,
   0x00, 0x00, 0x00, 0x00, 0x00, 0x00, 0x00, 0x00, 0x00, 0x00, 0x06, 0x00,
   0x00, 0x00, 0x00, 0x00, 0x00, 0x00, 0x00, 0x00, 0x00, 0x00, 0x00, 0x00,
   0x00, 0x00, 0x00, 0x00, 0x00, 0x00, 0x00, 0x00, 0x00, 0x00, 0x00, 0x00,
   0x00, 0x00, 0x00, 0x00, 0x00, 0x00, 0x00, 0x02, 0x00, 0x00, 0x00, 0x00,
   0x00, 0x00, 0x00, 0x00, 0x00, 0x00, 0x00, 0x00, 0x00, 0x00, 0x00, 0x00,
   0x00, 0x00, 0x00, 0x00, 0x00, 0x00, 0x00, 0x00, 0x00, 0x00, 0x00, 0x00,
   0x00, 0x00, 0x00, 0x00, 0x03, 0x00, 0x00, 0x00, 0x00, 0x00, 0x00, 0x00,
   0x00, 0x00, 0x00, 0x00, 0x00, 0x00, 0x00, 0x00, 0x00, 0x00, 0x00, 0x00,
   0x00, 0x00, 0x00, 0x00, 0x00, 0x00, 0x00, 0x00, 0x00, 0x00, 0x00, 0x00,
   0x80, 0x01, 0x00, 0x00, 0x00, 0x00, 0x00, 0x00, 0x00, 0x00, 0x00, 0x00,
   0x00, 0x00, 0x00, 0x00, 0x00, 0x00, 0x00, 0x00, 0x00, 0x00, 0x00, 0x00,
   0x00, 0x00, 0x00, 0x00, 0x00, 0x00, 0x00, 0x00, 0x00, 0xc0, 0x00, 0x00,
   0x00, 0x00, 0x00, 0x00, 0x00, 0x00, 0x00, 0x00, 0x00, 0x00, 0x00, 0x00,
   0x00, 0x00, 0x00, 0x00, 0x00, 0x00, 0x00, 0x00, 0x00, 0x00, 0x00, 0x00,
   0x00, 0x00, 0x00, 0x00, 0x00, 0x00, 0x60, 0x00, 0x00, 0x00, 0x00, 0x00,
   0x00, 0x00, 0x00, 0x00, 0x00, 0x00, 0x00, 0x00, 0x00, 0x00, 0x00, 0x00,
   0x00, 0x00, 0x00, 0x00, 0x00, 0x00, 0x00, 0x00, 0x00, 0x00, 0x00, 0x00,
   0x00, 0x00, 0x00, 0x20, 0x00, 0x00, 0x00, 0x00, 0x00, 0x00, 0x00, 0x00,
   0x00, 0x00, 0x00, 0x00, 0x00, 0x00, 0x00, 0x00, 0x00, 0x00, 0x00, 0x00,
   0x00, 0x00, 0x00, 0x00, 0x00, 0x00, 0x00, 0x00, 0x00, 0x00, 0x00, 0x00,
   0x10, 0x00, 0x00, 0x00, 0x00, 0x00, 0x00, 0x00, 0x00, 0x00, 0x00, 0x00,
   0x00, 0x00, 0x00, 0x00, 0x00, 0x00, 0x00, 0x00, 0x00, 0x00, 0x00, 0x00,
   0x00, 0x00, 0x00, 0x00, 0x00, 0x00, 0x00, 0x00, 0x00, 0x00, 0x00, 0x00,
   0x00, 0x00, 0x00, 0x00, 0x00, 0x00, 0x00, 0x00, 0x00, 0x00, 0x00, 0x00,
   0x00, 0x00, 0x00, 0x00, 0x00, 0x00, 0x00, 0x00, 0x00, 0x00, 0x00, 0x00,
   0x00, 0x00, 0x00, 0x00, 0x00, 0x00, 0x00, 0x00, 0x00, 0x00, 0x00, 0x00,
   0x00, 0x00, 0x00, 0x00, 0x00, 0x00, 0x00, 0x00, 0x00, 0x00, 0x00, 0x00,
   0x00, 0x00, 0x00, 0x00, 0x00, 0x00, 0x00, 0x00, 0x00, 0x00, 0x00, 0x00,
   0x00, 0x00, 0x00, 0x00, 0x00, 0x00, 0x00, 0x00, 0x00, 0x00, 0x00, 0x00,
   0x00, 0x00, 0x00, 0x00, 0x00, 0x00, 0x00, 0x00, 0x00, 0x00, 0x00, 0x00,
   0x00, 0x00, 0x00, 0x00, 0x00, 0x00, 0x00, 0x00, 0x00, 0x00, 0x00, 0x00,
   0x00, 0x00, 0x00, 0x00, 0x00, 0x00, 0x00, 0x00, 0x00, 0x00, 0x00, 0x00,
   0x00, 0x00, 0x00, 0x00, 0x00, 0x00, 0x00, 0x00, 0x00, 0x00, 0x00, 0x00,
   0x00, 0x00, 0x00, 0x00, 0x00, 0x00, 0x00, 0x00, 0x00, 0x00, 0x00, 0x00,
   0x00, 0x00, 0x00, 0x00, 0x00, 0x00, 0x00, 0x00, 0x00, 0x00, 0x00, 0x00,
   0x00, 0x00, 0x00, 0x00, 0x00, 0x00, 0x00, 0x00, 0x00, 0x00, 0x00, 0x00,
   0x00, 0x00, 0x00, 0x00, 0x00, 0x00, 0x00, 0x00, 0x00, 0x00, 0x00, 0x00,
   0x00, 0x00, 0x00, 0x00, 0x00, 0x00, 0x00, 0x00, 0x00, 0x00, 0x00, 0x00,
   0x00, 0x00, 0x00, 0x00, 0x00, 0x00, 0x00, 0x00, 0x00, 0x00, 0x00, 0x00,
   0x00, 0x00, 0x00, 0x00, 0x00, 0x00, 0x00, 0x00, 0x00, 0x00, 0x00, 0x00,
   0x00, 0x00, 0x00, 0x00, 0x00, 0x00, 0x00, 0x00, 0x00, 0x00, 0x00, 0x00,
   0x00, 0x00, 0x00, 0x00, 0x00, 0x00, 0x00, 0x00, 0x00, 0x00, 0x00, 0x00,
   0x00, 0x00, 0x00, 0x00, 0x00, 0x00, 0x00, 0x00, 0x00, 0x00, 0x00, 0x00,
   0x00, 0x00, 0x00, 0x00, 0x00, 0x00, 0x00, 0x00, 0x00, 0x00, 0x00, 0x00,
   0x00, 0x00, 0x00, 0x00, 0x00, 0x00, 0x00, 0x00, 0x00, 0x00, 0x00, 0x00,
   0x00, 0x00, 0x00, 0x00, 0x00, 0x00, 0x00, 0x00, 0x00, 0x00, 0x00, 0x00,
   0x00, 0x00, 0x00, 0x00, 0x00, 0x00, 0x00, 0x00, 0x00, 0x00, 0x00, 0x00,
   0x00, 0x00, 0x00, 0x00, 0x00, 0x00, 0x00, 0x00, 0x00, 0x00, 0x00, 0x00,
   0x00, 0x00, 0x00, 0x00, 0x00, 0x00, 0x00, 0x00, 0x00, 0x00, 0x00, 0x00,
   0x00, 0x00, 0x00, 0x00, 0x00, 0x00, 0x00, 0x00, 0x00, 0x00, 0x00, 0x00,
   0x00, 0x00, 0x00, 0x00, 0x00, 0x00, 0x00, 0x00, 0x00, 0x00, 0x00, 0x00,
   0x00, 0x00, 0x00, 0x00, 0x00, 0x00, 0x00, 0x00, 0x00, 0x00, 0x00, 0x00,
   0x00, 0x00, 0x00, 0x00, 0x00, 0x00, 0x00, 0x00, 0x00, 0x00, 0x00, 0x00,
   0x00, 0x00, 0x00, 0x00, 0x00, 0x00, 0x00, 0x00, 0x00, 0x00, 0x00, 0x00,
   0x00, 0x00, 0x00, 0x00, 0x00, 0x00, 0x00, 0x00, 0x00, 0x00, 0x00, 0x00,
   0x00, 0x00, 0x00, 0x00, 0x00, 0x00, 0x00, 0x00, 0x00, 0x00, 0x00, 0x00,
   0x00, 0x00, 0x00, 0x00, 0x00, 0x00, 0x00, 0x00, 0x00, 0x00, 0x00, 0x00,
   0x00, 0x00, 0x00, 0x00, 0x00, 0x00, 0x00, 0x00, 0x00, 0x00, 0x00, 0x00,
   0x00, 0x00, 0x00, 0x00, 0x00, 0x00, 0x00, 0x00, 0x00, 0x00, 0x00, 0x00,
   0x00, 0x00, 0x00, 0x00, 0x00, 0x00, 0x00, 0x00, 0x00, 0x00, 0x00, 0x00,
   0x00, 0x00, 0x00, 0x00, 0x00, 0x00, 0x00, 0x00, 0x00, 0x00, 0x00, 0x00,
   0x00, 0x00, 0x00, 0x00, 0x00, 0x00, 0x00, 0x00, 0x00, 0x00, 0x00, 0x00,
   0x00, 0x00, 0x00, 0x00, 0x00, 0x00, 0x00, 0x00, 0x00, 0x00, 0x00, 0x00,
   0x00, 0x00, 0x00, 0x00, 0x00, 0x00, 0x00, 0x00, 0x00, 0x00, 0x00, 0x00,
   0x00, 0x00, 0x00, 0x00, 0x00, 0x00, 0x00, 0x00, 0x00, 0x00, 0x00, 0x00,
   0x00, 0x00, 0x00, 0x00, 0x00, 0x00, 0x00, 0x00, 0x00, 0x00, 0x00, 0x00,
   0x00, 0x00, 0x00, 0x00, 0x00, 0x00, 0x00, 0x00, 0x00, 0x00, 0x00, 0x00,
   0x00, 0x00, 0x00, 0x00, 0x00, 0x00, 0x00, 0x00, 0x00, 0x00, 0x00, 0x00,
   0x00, 0x00, 0x00, 0x00, 0x00, 0x00, 0x00, 0x00, 0x00, 0x00, 0x00, 0x00,
   0x00, 0x00, 0x00, 0x00, 0x00, 0x00, 0x00, 0x00, 0x00, 0x00, 0x00, 0x00,
   0x00, 0x00, 0x00, 0x00, 0x00, 0x00, 0x00, 0x00, 0x00, 0x00, 0x00, 0x00,
   0x00, 0x00, 0x00, 0x00, 0x00, 0x00, 0x00, 0x00, 0x00, 0x00, 0x00, 0x00,
   0x00, 0x00, 0x00, 0x00, 0x00, 0x00, 0x00, 0x00, 0x00, 0x00, 0x00, 0x00,
   0x00, 0x00, 0x00, 0x00, 0x00, 0x00, 0x00, 0x00, 0x00, 0x00, 0x00, 0x00,
   0x00, 0x00, 0x00, 0x00, 0x00, 0x00, 0x00, 0x00, 0x00, 0x00, 0x00, 0x00,
   0x00, 0x00, 0x00, 0x00, 0x00, 0x00, 0x00, 0x00, 0x00, 0x00, 0x00, 0x00,
   0x00, 0x00, 0x00, 0x00, 0x00, 0x00, 0x00, 0x00, 0x00, 0x00, 0x00, 0x00,
   0x00, 0x00, 0x00, 0x00, 0x00, 0x00, 0x00, 0x00, 0x00, 0x00, 0x00, 0x00,
   0x00, 0x00, 0x00, 0x00, 0x00, 0x00, 0x00, 0x00, 0x00, 0x00, 0x00, 0x00,
   0x00, 0x00, 0x00, 0x00, 0x00, 0x00, 0x00, 0x00, 0x00, 0x00, 0x00, 0x00,
   0x00, 0x00, 0x00, 0x00, 0x00, 0x00, 0x00, 0x00, 0x00, 0x00, 0x00, 0x00,
   0x00, 0x00, 0x00, 0x00, 0x00, 0x00, 0x00, 0x00, 0x00, 0x00, 0x00, 0x00,
   0x00, 0x00, 0x00, 0x00, 0x00, 0x00, 0x00, 0x00, 0x00, 0x00, 0x00, 0x00,
   0x00, 0x00, 0x00, 0x00, 0x00, 0x00, 0x00, 0x00, 0x00, 0x00, 0x00, 0x00,
   0x00, 0x00, 0x00, 0x00, 0x00, 0x00, 0x00, 0x00, 0x00, 0x00, 0x00, 0x00,
   0x00, 0x00, 0x00, 0x00, 0x00, 0x00, 0x00, 0x00, 0x00, 0x00, 0x00, 0x00,
   0x00, 0x00, 0x00, 0x00, 0x00, 0x00, 0x00, 0x00, 0x00, 0x00, 0x00, 0x00,
   0x00, 0x00, 0x00, 0x00, 0x00, 0x00, 0x00, 0x00, 0x00, 0x00, 0x00, 0x00,
   0x00, 0x00, 0x00, 0x00, 0x00, 0x00, 0x00, 0x00, 0x00, 0x00, 0x00, 0x00,
   0x00, 0x00, 0x00, 0x00, 0x00, 0x00, 0x00, 0x00, 0x00, 0x00, 0x00, 0x00,
   0x00, 0x00, 0x00, 0x00, 0x00, 0x00, 0x00, 0x00, 0x00, 0x00, 0x00, 0x00,
   0x00, 0x00, 0x00, 0x00, 0x00, 0x00, 0x00, 0x00, 0x00, 0x00, 0x00, 0x00,
   0x00, 0x00, 0x00, 0x00, 0x00, 0x00, 0x00, 0x00, 0x00, 0x00, 0x00, 0x00,
   0x00, 0x00, 0x00, 0x00, 0x00, 0x00, 0x00, 0x00, 0x00, 0x00, 0x00, 0x00,
   0x00, 0x00, 0x00, 0x00, 0x00, 0x00, 0x00, 0x00, 0x00, 0x00, 0x00, 0x00,
   0x00, 0x00, 0x00, 0x00, 0x00, 0x00, 0x00, 0x00, 0x00, 0x00, 0x00, 0x00,
   0x00, 0x00, 0x00, 0x00, 0x00, 0x00, 0x00, 0x00, 0x00, 0x00, 0x00, 0x00,
   0x00, 0x00, 0x00, 0x00, 0x00, 0x00, 0x00, 0x00, 0x00, 0x00, 0x00, 0x00,
   0x00, 0x00, 0x00, 0x00, 0x00, 0x00, 0x00, 0x00, 0x00, 0x00, 0x00, 0x00,
   0x00, 0x00, 0x00, 0x00, 0x00, 0x00, 0x00, 0x00, 0x00, 0x00, 0x00, 0x00,
   0x00, 0x00, 0x00, 0x00, 0x00, 0x00, 0x00, 0x00, 0x00, 0x00, 0x00, 0x00,
   0x00, 0x00, 0x00, 0x00, 0x00, 0x00, 0x00, 0x00, 0x00, 0x00, 0x00, 0x00 };
